<svg xmlns="http://www.w3.org/2000/svg" viewBox="0 0 1000 1000">
  <path d="M393.77 47.75c-15.18 21.06-28.31 38.51-29.22 38.51s-21.52-6.57-45.75-14.72c-24.01-8.15-44.17-14.27-44.85-13.82-.45.68-7.25 21.29-15.18 45.98l-14.27 44.84H147.79v96.72l-44.85 14.27c-24.69 7.93-45.3 14.72-45.98 15.18-.45.68 5.66 20.84 13.82 44.85 8.15 24.23 14.72 44.84 14.72 45.75 0 .68-16.53 13.36-36.92 28.09-20.16 14.5-37.6 27.18-38.51 28.09-1.13.91 10.87 19.25 26.5 40.54l28.54 38.73-28.54 38.73c-15.63 21.29-27.63 39.64-26.5 40.54.91.91 18.35 13.59 38.51 28.09 20.38 14.72 36.92 27.41 36.92 28.08 0 .91-6.57 21.52-14.72 45.75-8.15 24.01-14.27 44.17-13.82 44.85.68.45 21.29 7.25 45.98 15.18l44.85 14.27V852.96H244.5l14.27 44.85c7.93 24.69 14.72 45.3 15.18 45.98.68.45 20.84-5.66 44.85-13.82 24.24-8.15 44.85-14.72 45.75-14.72.68 0 13.36 16.54 28.09 36.69 14.5 20.39 27.18 37.83 28.09 38.73.91 1.13 19.25-10.87 40.54-26.5L500 935.63l38.96 28.54c36.47 26.96 38.96 28.31 41.9 24.46 1.81-2.49 14.04-19.48 27.41-38.05 13.37-18.35 25.14-33.98 26.5-34.43 1.13-.45 21.97 5.66 46.21 13.82 24.23 7.93 44.39 14.27 45.07 13.82.45-.68 7.25-21.29 15.18-45.98l14.27-44.85h96.72V756.25l44.85-14.27c24.69-7.93 45.3-14.72 45.98-15.18.45-.68-5.89-20.84-13.82-45.07-8.15-24.24-14.27-45.08-13.82-46.21.45-1.36 16.08-13.14 34.43-26.5 18.57-13.36 35.56-25.6 38.05-27.41 3.85-2.94 2.49-5.44-24.46-41.9l-28.54-38.96 28.54-38.73c15.63-21.29 27.63-39.64 26.5-40.54-.9-.91-18.35-13.59-38.5-28.09-20.39-14.72-36.92-27.41-36.92-28.09 0-.91 6.57-21.52 14.72-45.75 8.15-24.01 14.27-44.17 13.82-44.85-.68-.45-21.29-7.25-45.98-15.18l-44.85-14.27v-96.72H755.5l-14.27-44.83c-7.93-24.69-14.72-45.3-15.18-45.98-.68-.45-20.84 5.89-45.07 13.82-24.24 8.15-45.08 14.27-46.21 13.82-1.36-.45-13.14-16.08-26.5-34.43-13.36-18.57-25.59-35.56-27.41-38.05-2.94-3.85-5.44-2.49-41.9 24.46L500 65.87l-38.5-28.31c-21.29-15.63-38.73-28.31-39.18-28.31-.46-.01-13.15 17.21-28.55 38.5zm-36.92 200.91.68 12h-77.46l.68 20.84.68 21.06 32.39.68 32.16.68v22.43H280.3v65.68h-29.44V235.75l52.78.45 52.55.68.66 11.78zm102.38-8.38c20.38 7.47 30.12 20.84 30.12 41.45 0 14.5-3.85 21.74-15.86 30.13l-7.02 4.76 8.15 4.3c10.65 5.66 16.08 18.12 16.31 37.15.23 8.15 1.59 18.8 3.4 23.78s3.4 9.29 3.4 9.51c0 .45-7.02.68-15.86.68-19.25 0-20.16-1.13-21.97-28.99-.68-10.87-2.27-21.52-3.4-23.78-3.4-6.57-16.08-10.65-33.3-10.65h-15.85l-.68 31.03-.67 31.25-15.18.68-15.4.68V235.29l38.05.91c22.2.68 41 2.27 45.76 4.08zm165.35 7.92v12.46h-74.75v38.5h63.42v24.92h-63.42v43.04h74.74v24.92h-104.2V235.76h104.2v12.44zm124.57 0v12.46h-74.74v38.5h65.91l-.68 11.78-.68 12-32.16.68-32.39.68v42.82h74.74v24.92h-104.2V235.76h104.2v12.44zM298.41 443.22c8.38 3.4 15.86 12.23 15.86 19.03 0 1.13-3.4 2.27-7.47 2.27-5.44 0-7.93-1.36-9.51-5.21-1.81-4.08-4.08-4.98-12.46-4.98-8.83 0-10.19.68-10.87 5.21-1.13 7.25 2.49 10.65 14.72 14.27 24.01 6.57 32.84 24.69 19.03 38.5-5.66 5.66-8.38 6.57-19.25 6.57-6.79 0-14.95-.91-17.89-2.04-7.93-3.17-15.18-11.55-15.18-17.67 0-4.3 1.13-5.21 6.57-5.21 5.21 0 7.48 1.59 9.74 6.12 2.49 5.44 4.3 6.34 12.91 6.34 7.02 0 10.65-1.13 12.46-3.85 3.85-6.34-.68-11.33-15.63-16.99-17.67-6.79-23.78-12.91-23.78-23.33 0-9.29 6.57-17.21 17.21-20.39 9.73-2.94 13.58-2.71 23.54 1.36zm426.05-1.36c9.51 2.72 17.21 10.19 18.35 18.12.45 4.76-.45 5.89-5.44 6.34-4.98.68-6.79-.45-9.06-5.21-4.76-10.42-21.52-10.42-26.27 0-1.59 3.17-2.72 12.23-2.72 20.16 0 19.48 5.44 26.73 19.03 25.82 9.06-.68 9.29-.9 9.96-9.29.68-8.15.45-8.38-6.34-8.38-6.12 0-7.02-.68-6.34-5.21.68-4.53 2.04-4.98 14.95-5.66l14.04-.68v16.09c0 15.63-.23 16.08-7.25 20.39-4.98 3.17-11.55 4.53-19.93 4.53-23.33 0-33.97-12-33.97-38.51 0-21.29 7.25-33.98 21.74-38.51 8.83-2.49 9.97-2.49 19.25 0zM341.9 458.17l.68 16.53 15.4.68 15.18.68v-34.2h15.86v77.02h-15.86v-31.72h-31.72v31.72h-15.86v-77.02H341.21l.69 16.31zm78.82 22.2v38.51h-15.85v-77.02h15.86v38.51zm61.39-34.88c8.15 4.08 14.04 16.53 12 25.37-3.17 13.13-16.08 20.84-35.33 20.84h-8.61v27.18h-15.86v-77.02h20.39c14.27 0 22.65 1.14 27.41 3.63zm75.42 2.94c11.55 10.87 9.51 31.03-3.85 38.05-3.85 1.81-12.91 4.08-20.16 4.53l-13.14 1.36v13.14c0 13.36 0 13.36-6.79 13.36h-6.79v-77.46l22.42.91c20.16.68 23.1 1.36 28.31 6.11zm35.34 31.94v38.51h-15.86v-77.02h15.86v38.51zm46.88-12.23 15.4 26.05.68-26.05.68-26.27H672.14V518.88h-8.38c-8.61-.23-8.83-.45-23.33-25.59l-14.72-25.37-.68 25.37-.68 25.59H608.72v-77.02h7.93c7.47 0 8.15.68 23.1 26.28zm41 104.19 4.98 3.4v210.2l-5.89 4.53c-5.44 4.3-9.06 4.76-33.75 4.76h-27.63l-5.43 8.38c-14.95 23.1-45.75 23.1-60.7 0l-5.44-8.38H421.86l-4.53 8.38c-12.68 23.33-48.7 23.1-61.38-.45l-4.3-7.93h-73.61v-24.46c0-21.75.68-25.82 5.89-36.24 3.17-6.57 9.97-15.4 15.17-19.93 9.74-8.38 38.28-23.56 44.62-23.56 2.49 0 8.83-12.23 20.39-38.51l16.76-38.51h69.31v-45.3h112.8c98.29 0 113.24.45 117.77 3.62z"/><path d="M407.13 283.09v22.88h15.86c27.18 0 37.83-7.7 35.56-25.59-2.04-15.18-7.48-18.35-31.03-19.25l-20.39-.91v22.87zM450.17 465.65v12.46h11.1c12 0 18.35-3.85 18.35-11.55 0-7.7-8.15-13.36-19.25-13.36h-10.19v12.45zM521.97 454.78c-.91.68-1.59 6.34-1.59 12.46v10.87h12.46c9.74 0 12.69-.91 14.72-4.3 6.12-11.55-.68-20.61-15.18-20.61-4.97-.01-9.73.67-10.41 1.58zM463.76 681.96v97.4h41.45l41.22-.22 4.53-9.51c6.34-13.14 16.76-19.71 31.71-19.71s25.37 6.57 31.71 19.71l4.53 9.51 26.73.22h26.5v-194.8H463.76v97.4zm81.54-61.16v6.8h-63.42v-13.59h63.42v6.79zm44.85 38.96-.68 7.47-53.68.68-53.91.45V652.5h108.95l-.68 7.26zm43.49 40.32v6.79H481.88v-13.58h151.76v6.79zM384.94 640.51c-2.49 6.12-8.15 19.25-12.46 29.45l-8.15 18.8h40.55v-58.9h-7.7c-6.81 0-7.94.91-12.24 10.65z"/><path d="M418.46 667.01v37.37l-37.83.68c-36.92.68-38.51.91-50.96 7.25-16.76 8.38-32.62 24.01-35.79 34.88-1.13 4.53-2.27 13.82-2.27 20.16v12h58.9l3.17-7.47c5.44-12.91 15.63-20.39 29.22-21.52 17.21-1.36 27.41 3.85 35.11 17.89l6.12 11.1h26.05v-149.5h-31.72v37.16z"/><path d="M373.39 769.62c-14.95 13.82-6.34 36.92 13.82 36.92 16.08 0 25.82-15.4 18.8-30.13-6.58-13.82-21.75-16.99-32.62-6.79zM573.39 765.54c-13.37 5.66-16.31 23.78-5.66 34.43 19.25 19.03 49.15-8.15 31.48-28.54-5.67-6.35-17.89-9.06-25.82-5.89z"/>
</svg>